<mxfile host="Electron" modified="2024-06-25T01:32:12.131Z" agent="Mozilla/5.0 (Macintosh; Intel Mac OS X 10_15_7) AppleWebKit/537.36 (KHTML, like Gecko) draw.io/24.6.1 Chrome/124.0.6367.207 Electron/30.0.6 Safari/537.36" etag="0Qeh3ih7Ug2Syfh73DZI" version="24.6.1" type="device">
  <diagram name="Page-1" id="lMT3Yc7IqsS6a4-m2tbt">
    <mxGraphModel dx="462" dy="639" grid="1" gridSize="10" guides="1" tooltips="1" connect="1" arrows="1" fold="1" page="1" pageScale="1" pageWidth="850" pageHeight="1100" math="0" shadow="0">
      <root>
        <mxCell id="0" />
        <mxCell id="1" parent="0" />
        <mxCell id="II7Q0cRigDoH1TEr19Bd-1" value="Observation" style="swimlane;fontStyle=1;align=center;verticalAlign=top;childLayout=stackLayout;horizontal=1;startSize=26;horizontalStack=0;resizeParent=1;resizeParentMax=0;resizeLast=0;collapsible=1;marginBottom=0;whiteSpace=wrap;html=1;" parent="1" vertex="1">
          <mxGeometry x="80" y="40" width="220" height="260" as="geometry" />
        </mxCell>
        <mxCell id="II7Q0cRigDoH1TEr19Bd-2" value="- axis_titles: []&lt;div&gt;- data: pd.Dataframe&lt;/div&gt;&lt;div&gt;- metadata: {}&lt;/div&gt;" style="text;strokeColor=none;fillColor=none;align=left;verticalAlign=top;spacingLeft=4;spacingRight=4;overflow=hidden;rotatable=0;points=[[0,0.5],[1,0.5]];portConstraint=eastwest;whiteSpace=wrap;html=1;" parent="II7Q0cRigDoH1TEr19Bd-1" vertex="1">
          <mxGeometry y="26" width="220" height="54" as="geometry" />
        </mxCell>
        <mxCell id="II7Q0cRigDoH1TEr19Bd-3" value="" style="line;strokeWidth=1;fillColor=none;align=left;verticalAlign=middle;spacingTop=-1;spacingLeft=3;spacingRight=3;rotatable=0;labelPosition=right;points=[];portConstraint=eastwest;strokeColor=inherit;" parent="II7Q0cRigDoH1TEr19Bd-1" vertex="1">
          <mxGeometry y="80" width="220" height="10" as="geometry" />
        </mxCell>
        <mxCell id="II7Q0cRigDoH1TEr19Bd-4" value="+ get_axis_titles: []&lt;div&gt;+ get_data: pd.Dataframe&lt;/div&gt;&lt;div&gt;+ get_metadata: {}&lt;/div&gt;&lt;div&gt;+ add_axis_titles([]): None&lt;/div&gt;&lt;div&gt;+ add_data(pd.DataFrame): None&lt;/div&gt;&lt;div&gt;+ add_metadata({}): None&lt;/div&gt;&lt;div&gt;+ has_axis_titles: bool&lt;/div&gt;&lt;div&gt;+ has_data: bool&lt;/div&gt;&lt;div&gt;+ has_metadata: bool&lt;/div&gt;&lt;div&gt;+ print: None&lt;/div&gt;" style="text;strokeColor=none;fillColor=none;align=left;verticalAlign=top;spacingLeft=4;spacingRight=4;overflow=hidden;rotatable=0;points=[[0,0.5],[1,0.5]];portConstraint=eastwest;whiteSpace=wrap;html=1;" parent="II7Q0cRigDoH1TEr19Bd-1" vertex="1">
          <mxGeometry y="90" width="220" height="170" as="geometry" />
        </mxCell>
        <mxCell id="3TbGAdBgGuGWrBYYT3-P-1" value="&lt;p style=&quot;margin:0px;margin-top:4px;text-align:center;&quot;&gt;&lt;i&gt;&amp;lt;&amp;lt;Interface&amp;gt;&amp;gt;&lt;/i&gt;&lt;br&gt;&lt;b&gt;TimePositionEncoding&lt;/b&gt;&lt;/p&gt;&lt;hr size=&quot;1&quot; style=&quot;border-style:solid;&quot;&gt;&lt;p style=&quot;margin:0px;margin-left:4px;&quot;&gt;&lt;br&gt;&lt;/p&gt;&lt;hr size=&quot;1&quot; style=&quot;border-style:solid;&quot;&gt;&lt;p style=&quot;margin:0px;margin-left:4px;&quot;&gt;+ forward(d_emb, norm): None&amp;nbsp;&lt;br&gt;&lt;/p&gt;" style="verticalAlign=top;align=left;overflow=fill;html=1;whiteSpace=wrap;" vertex="1" parent="1">
          <mxGeometry x="400" y="40" width="190" height="140" as="geometry" />
        </mxCell>
      </root>
    </mxGraphModel>
  </diagram>
</mxfile>
